<svg viewBox="0 0 150 150" xmlns="http://www.w3.org/2000/svg">
<rect x="0" y="0" width="150" height="150" rx="32" fill="#061225"/>
<rect x="4" y="4" width="142" height="142" rx="28" fill="#0a1e3d" stroke="#15305c" stroke-width="0.5"/>
<line x1="67" y1="35" x2="83" y2="35" stroke="#2a75d0" stroke-width="2.5" stroke-linecap="round"/>
<rect x="69" y="35" width="12" height="16" fill="none" stroke="#2a75d0" stroke-width="1.8" rx="2"/>
<path d="M69 51 L47 95 Q43 105 53 107 L97 107 Q107 105 103 95 L81 51" fill="#0c2854" stroke="#2a75d0" stroke-width="1.8" stroke-linejoin="round"/>
<path d="M55 80 L47 95 Q43 105 53 107 L97 107 Q107 105 103 95 L95 80 Z" fill="#112f60"/>
<circle cx="65" cy="93" r="4" fill="#2a75d0" opacity="0.6"/>
<circle cx="83" cy="87" r="3" fill="#4da3ff" opacity="0.5"/>
<circle cx="75" cy="99" r="2.5" fill="#2a75d0" opacity="0.4"/>
<path d="M68 85 L82 93 L68 101 Z" fill="#2a75d0" opacity="0.7" transform="translate(0,-5) scale(0.85)"/>
<path d="M65 28 Q75 21 85 28" fill="none" stroke="#2a75d0" stroke-width="1.8" stroke-linecap="round"/>
<path d="M57 22 Q75 12 93 22" fill="none" stroke="#2a75d0" stroke-width="1.4" stroke-linecap="round" opacity="0.55"/>
<path d="M49 16 Q75 2 101 16" fill="none" stroke="#2a75d0" stroke-width="1" stroke-linecap="round" opacity="0.25"/>
</svg>